# xmcd
#
# Track frame offsets:
#	183
#	14083
#	27980
#	43538
#	66695
#	83305
#	105243
#	122963
#	138055
#	154285
#	171395
#
# Disc length: 2474 seconds
#
# Revision: 4
# Processed by: cddbd v1.5.1PL0 Copyright (c) Steve Scherf et al.
# Submitted via: audiograbber 1.83.01
#
DISCID=8f09a80b
DTITLE=Dan SEALS - The Best
DYEAR=1987
DGENRE=Country
TTITLE0=Three Time Loser
TTITLE1=God Must be a Cowboy
TTITLE2=My Baby's Got Good Timing
TTITLE3=You Still Move Me
TTITLE4=Bop
TTITLE5=Everything That Glitters (Is Not Gold)
TTITLE6=Meet Me in Montana
TTITLE7=(You Bring Out) The Wild Side Of Me
TTITLE8=My Old Yellow Car
TTITLE9=I Will Be There
TTITLE10=One Friend
EXTD=
EXTT0=
EXTT1=
EXTT2=
EXTT3=
EXTT4=
EXTT5=
EXTT6=
EXTT7=
EXTT8=
EXTT9=
EXTT10=
PLAYORDER=
